<mxfile host="app.diagrams.net" modified="2023-12-04T11:02:16.752Z" agent="Mozilla/5.0 (Windows NT 10.0; Win64; x64) AppleWebKit/537.36 (KHTML, like Gecko) Chrome/119.0.0.0 Safari/537.36 Edg/119.0.0.0" etag="1MFMUIQtTgPSyfd2z3qN" version="22.1.5" type="github" pages="2">
  <diagram name="페이지-1" id="K-AlbiNvDhdfrvrRrDHl">
    <mxGraphModel dx="2226" dy="443" grid="0" gridSize="10" guides="1" tooltips="1" connect="1" arrows="1" fold="1" page="0" pageScale="1" pageWidth="827" pageHeight="1169" math="0" shadow="0">
      <root>
        <mxCell id="0" />
        <mxCell id="1" parent="0" />
        <mxCell id="7CfgPuuCXe2S4xMgSCTg-12" value="" style="whiteSpace=wrap;html=1;fontSize=16;fillColor=#000000;" vertex="1" parent="1">
          <mxGeometry x="-571" y="714" width="673" height="220" as="geometry" />
        </mxCell>
        <mxCell id="YnSRLy2Meo23QNcn_RVZ-6" value="" style="rounded=0;whiteSpace=wrap;html=1;fontSize=16;" vertex="1" parent="1">
          <mxGeometry x="-35" y="790.75" width="137" height="54" as="geometry" />
        </mxCell>
        <mxCell id="7CfgPuuCXe2S4xMgSCTg-1" value="" style="whiteSpace=wrap;html=1;fontSize=16;fillColor=#000000;" vertex="1" parent="1">
          <mxGeometry x="169" y="711" width="597" height="221" as="geometry" />
        </mxCell>
        <mxCell id="7CfgPuuCXe2S4xMgSCTg-5" value="" style="rounded=0;whiteSpace=wrap;html=1;fontSize=16;strokeColor=#FFFFFF;" vertex="1" parent="1">
          <mxGeometry x="211" y="810" width="120" height="122" as="geometry" />
        </mxCell>
        <mxCell id="7CfgPuuCXe2S4xMgSCTg-46" value="" style="edgeStyle=none;curved=1;rounded=0;orthogonalLoop=1;jettySize=auto;html=1;fontSize=12;startSize=8;endSize=8;entryX=0;entryY=0.5;entryDx=0;entryDy=0;strokeColor=#FF5C7C;" edge="1" parent="1" source="7CfgPuuCXe2S4xMgSCTg-2" target="7CfgPuuCXe2S4xMgSCTg-44">
          <mxGeometry relative="1" as="geometry" />
        </mxCell>
        <mxCell id="7CfgPuuCXe2S4xMgSCTg-2" value="직원" style="shape=umlActor;verticalLabelPosition=bottom;verticalAlign=top;html=1;outlineConnect=0;fontSize=16;" vertex="1" parent="1">
          <mxGeometry x="233" y="964.5" width="30" height="60" as="geometry" />
        </mxCell>
        <mxCell id="7CfgPuuCXe2S4xMgSCTg-3" value="승객" style="shape=umlActor;verticalLabelPosition=bottom;verticalAlign=top;html=1;outlineConnect=0;fontSize=16;" vertex="1" parent="1">
          <mxGeometry x="725" y="948" width="30" height="60" as="geometry" />
        </mxCell>
        <mxCell id="7CfgPuuCXe2S4xMgSCTg-6" value="" style="rounded=0;whiteSpace=wrap;html=1;fontSize=16;" vertex="1" parent="1">
          <mxGeometry x="406.5" y="810" width="120" height="122" as="geometry" />
        </mxCell>
        <mxCell id="7CfgPuuCXe2S4xMgSCTg-7" value="" style="rounded=0;whiteSpace=wrap;html=1;fontSize=16;" vertex="1" parent="1">
          <mxGeometry x="598" y="810" width="120" height="122" as="geometry" />
        </mxCell>
        <mxCell id="7CfgPuuCXe2S4xMgSCTg-8" value="" style="shape=cylinder3;whiteSpace=wrap;html=1;boundedLbl=1;backgroundOutline=1;size=15;fontSize=16;" vertex="1" parent="1">
          <mxGeometry x="351" y="780" width="31" height="47" as="geometry" />
        </mxCell>
        <mxCell id="7CfgPuuCXe2S4xMgSCTg-9" value="" style="shape=cylinder3;whiteSpace=wrap;html=1;boundedLbl=1;backgroundOutline=1;size=15;fontSize=16;" vertex="1" parent="1">
          <mxGeometry x="546" y="780" width="31" height="47" as="geometry" />
        </mxCell>
        <mxCell id="7CfgPuuCXe2S4xMgSCTg-10" value="" style="endArrow=none;html=1;rounded=0;fontSize=12;startSize=8;endSize=8;curved=1;strokeColor=#666666;" edge="1" parent="1">
          <mxGeometry width="50" height="50" relative="1" as="geometry">
            <mxPoint x="392.25" y="806" as="sourcePoint" />
            <mxPoint x="540.75" y="806" as="targetPoint" />
          </mxGeometry>
        </mxCell>
        <mxCell id="7CfgPuuCXe2S4xMgSCTg-11" value="&lt;font color=&quot;#ffffff&quot;&gt;CAN&lt;/font&gt;" style="text;html=1;strokeColor=none;fillColor=none;align=center;verticalAlign=middle;whiteSpace=wrap;rounded=0;fontSize=16;" vertex="1" parent="1">
          <mxGeometry x="439" y="780" width="60" height="30" as="geometry" />
        </mxCell>
        <mxCell id="7CfgPuuCXe2S4xMgSCTg-13" value="" style="rounded=0;whiteSpace=wrap;html=1;fontSize=16;" vertex="1" parent="1">
          <mxGeometry x="-555" y="812" width="120" height="122" as="geometry" />
        </mxCell>
        <mxCell id="7CfgPuuCXe2S4xMgSCTg-14" value="" style="rounded=0;whiteSpace=wrap;html=1;fontSize=16;" vertex="1" parent="1">
          <mxGeometry x="-359.5" y="812" width="120" height="122" as="geometry" />
        </mxCell>
        <mxCell id="7CfgPuuCXe2S4xMgSCTg-15" value="" style="rounded=0;whiteSpace=wrap;html=1;fontSize=16;" vertex="1" parent="1">
          <mxGeometry x="-168" y="812" width="120" height="122" as="geometry" />
        </mxCell>
        <mxCell id="7CfgPuuCXe2S4xMgSCTg-16" value="" style="shape=cylinder3;whiteSpace=wrap;html=1;boundedLbl=1;backgroundOutline=1;size=15;fontSize=16;fillColor=#666666;" vertex="1" parent="1">
          <mxGeometry x="-510.5" y="804" width="31" height="47" as="geometry" />
        </mxCell>
        <mxCell id="7CfgPuuCXe2S4xMgSCTg-17" value="" style="shape=cylinder3;whiteSpace=wrap;html=1;boundedLbl=1;backgroundOutline=1;size=15;fontSize=16;fillColor=#666666;" vertex="1" parent="1">
          <mxGeometry x="-316.5" y="804" width="31" height="47" as="geometry" />
        </mxCell>
        <mxCell id="7CfgPuuCXe2S4xMgSCTg-18" value="" style="endArrow=none;html=1;rounded=0;fontSize=12;startSize=8;endSize=8;curved=1;strokeColor=#666666;" edge="1" parent="1">
          <mxGeometry width="50" height="50" relative="1" as="geometry">
            <mxPoint x="-503" y="801" as="sourcePoint" />
            <mxPoint x="-105" y="801" as="targetPoint" />
          </mxGeometry>
        </mxCell>
        <mxCell id="7CfgPuuCXe2S4xMgSCTg-19" value="&lt;font color=&quot;#ffffff&quot;&gt;CAN&lt;/font&gt;" style="text;html=1;strokeColor=none;fillColor=none;align=center;verticalAlign=middle;whiteSpace=wrap;rounded=0;fontSize=16;" vertex="1" parent="1">
          <mxGeometry x="-329.5" y="774" width="60" height="30" as="geometry" />
        </mxCell>
        <mxCell id="7CfgPuuCXe2S4xMgSCTg-21" value="" style="shape=cylinder3;whiteSpace=wrap;html=1;boundedLbl=1;backgroundOutline=1;size=15;fontSize=16;fillColor=#666666;" vertex="1" parent="1">
          <mxGeometry x="-123.5" y="808" width="31" height="47" as="geometry" />
        </mxCell>
        <mxCell id="7CfgPuuCXe2S4xMgSCTg-23" value="&lt;font color=&quot;#666666&quot;&gt;이산화탄소 센서1&lt;/font&gt;" style="text;html=1;align=center;verticalAlign=middle;resizable=0;points=[];autosize=1;strokeColor=none;fillColor=none;fontSize=16;" vertex="1" parent="1">
          <mxGeometry x="-569" y="851" width="143" height="31" as="geometry" />
        </mxCell>
        <mxCell id="7CfgPuuCXe2S4xMgSCTg-24" value="&lt;font color=&quot;#666666&quot;&gt;이산화탄소 센서2&lt;/font&gt;" style="text;html=1;align=center;verticalAlign=middle;resizable=0;points=[];autosize=1;strokeColor=none;fillColor=none;fontSize=16;" vertex="1" parent="1">
          <mxGeometry x="-372.5" y="849" width="143" height="31" as="geometry" />
        </mxCell>
        <mxCell id="7CfgPuuCXe2S4xMgSCTg-25" value="&lt;font color=&quot;#666666&quot;&gt;이산화탄소 센서3&lt;/font&gt;" style="text;html=1;align=center;verticalAlign=middle;resizable=0;points=[];autosize=1;strokeColor=none;fillColor=none;fontSize=16;" vertex="1" parent="1">
          <mxGeometry x="-181" y="851" width="143" height="31" as="geometry" />
        </mxCell>
        <mxCell id="7CfgPuuCXe2S4xMgSCTg-26" value="&lt;font color=&quot;#ffffff&quot;&gt;TOF&lt;/font&gt;" style="text;html=1;align=center;verticalAlign=middle;resizable=0;points=[];autosize=1;strokeColor=none;fillColor=none;fontSize=16;" vertex="1" parent="1">
          <mxGeometry x="341.5" y="818" width="50" height="31" as="geometry" />
        </mxCell>
        <mxCell id="7CfgPuuCXe2S4xMgSCTg-27" value="&lt;font color=&quot;#ffffff&quot;&gt;TOF&lt;/font&gt;" style="text;html=1;align=center;verticalAlign=middle;resizable=0;points=[];autosize=1;strokeColor=none;fillColor=none;fontSize=16;" vertex="1" parent="1">
          <mxGeometry x="536.5" y="818" width="50" height="31" as="geometry" />
        </mxCell>
        <mxCell id="7CfgPuuCXe2S4xMgSCTg-28" value="지하철" style="text;html=1;align=center;verticalAlign=middle;resizable=0;points=[];autosize=1;strokeColor=none;fillColor=none;fontSize=16;" vertex="1" parent="1">
          <mxGeometry x="-332.5" y="964.5" width="66" height="31" as="geometry" />
        </mxCell>
        <mxCell id="7CfgPuuCXe2S4xMgSCTg-29" value="스크린도어" style="text;html=1;align=center;verticalAlign=middle;resizable=0;points=[];autosize=1;strokeColor=none;fillColor=none;fontSize=16;" vertex="1" parent="1">
          <mxGeometry x="428.5" y="962.5" width="98" height="31" as="geometry" />
        </mxCell>
        <mxCell id="7CfgPuuCXe2S4xMgSCTg-31" value="" style="endArrow=none;html=1;rounded=0;fontSize=12;startSize=8;endSize=8;curved=1;strokeColor=#666666;" edge="1" parent="1">
          <mxGeometry width="50" height="50" relative="1" as="geometry">
            <mxPoint x="-197" y="774" as="sourcePoint" />
            <mxPoint x="481" y="774" as="targetPoint" />
          </mxGeometry>
        </mxCell>
        <mxCell id="7CfgPuuCXe2S4xMgSCTg-32" value="MQTT" style="text;html=1;align=center;verticalAlign=middle;resizable=0;points=[];autosize=1;strokeColor=none;fillColor=none;fontSize=16;" vertex="1" parent="1">
          <mxGeometry x="100" y="741" width="63" height="31" as="geometry" />
        </mxCell>
        <mxCell id="7CfgPuuCXe2S4xMgSCTg-33" value="LCD" style="whiteSpace=wrap;html=1;fontSize=16;fillColor=#97D077;" vertex="1" parent="1">
          <mxGeometry x="406.5" y="716" width="131" height="44" as="geometry" />
        </mxCell>
        <mxCell id="7CfgPuuCXe2S4xMgSCTg-35" value="" style="rounded=0;whiteSpace=wrap;html=1;fontSize=16;fillColor=#000000;" vertex="1" parent="1">
          <mxGeometry x="-168" y="874" width="120" height="60" as="geometry" />
        </mxCell>
        <mxCell id="7CfgPuuCXe2S4xMgSCTg-36" value="" style="rounded=0;whiteSpace=wrap;html=1;fontSize=16;fillColor=#000000;" vertex="1" parent="1">
          <mxGeometry x="-359.5" y="874" width="120" height="60" as="geometry" />
        </mxCell>
        <mxCell id="7CfgPuuCXe2S4xMgSCTg-37" value="" style="rounded=0;whiteSpace=wrap;html=1;fontSize=16;fillColor=#000000;" vertex="1" parent="1">
          <mxGeometry x="-555" y="874" width="120" height="60" as="geometry" />
        </mxCell>
        <mxCell id="7CfgPuuCXe2S4xMgSCTg-39" value="" style="rounded=0;whiteSpace=wrap;html=1;fontSize=16;fillColor=#000000;" vertex="1" parent="1">
          <mxGeometry x="406" y="916" width="120" height="16" as="geometry" />
        </mxCell>
        <mxCell id="7CfgPuuCXe2S4xMgSCTg-40" value="" style="rounded=0;whiteSpace=wrap;html=1;fontSize=16;fillColor=#000000;" vertex="1" parent="1">
          <mxGeometry x="598" y="915" width="120" height="17" as="geometry" />
        </mxCell>
        <mxCell id="7CfgPuuCXe2S4xMgSCTg-41" value="" style="rounded=0;whiteSpace=wrap;html=1;fontSize=16;fillColor=#000000;" vertex="1" parent="1">
          <mxGeometry x="462" y="811" width="8" height="121" as="geometry" />
        </mxCell>
        <mxCell id="7CfgPuuCXe2S4xMgSCTg-42" value="" style="rounded=0;whiteSpace=wrap;html=1;fontSize=16;fillColor=#000000;" vertex="1" parent="1">
          <mxGeometry x="654" y="810" width="8" height="121" as="geometry" />
        </mxCell>
        <mxCell id="7CfgPuuCXe2S4xMgSCTg-43" value="스크린도어 고장" style="text;html=1;align=center;verticalAlign=middle;resizable=0;points=[];autosize=1;strokeColor=none;fillColor=none;fontSize=16;" vertex="1" parent="1">
          <mxGeometry x="129" y="932" width="134" height="31" as="geometry" />
        </mxCell>
        <mxCell id="7CfgPuuCXe2S4xMgSCTg-44" value="" style="whiteSpace=wrap;html=1;fontSize=16;" vertex="1" parent="1">
          <mxGeometry x="341.5" y="880" width="18" height="21" as="geometry" />
        </mxCell>
        <mxCell id="7CfgPuuCXe2S4xMgSCTg-45" value="&lt;font color=&quot;#ffffff&quot;&gt;버튼&lt;/font&gt;" style="text;html=1;align=center;verticalAlign=middle;resizable=0;points=[];autosize=1;strokeColor=none;fillColor=none;fontSize=16;" vertex="1" parent="1">
          <mxGeometry x="334" y="901" width="50" height="31" as="geometry" />
        </mxCell>
        <mxCell id="7CfgPuuCXe2S4xMgSCTg-48" value="고장 알림" style="text;html=1;align=center;verticalAlign=middle;resizable=0;points=[];autosize=1;strokeColor=none;fillColor=none;fontSize=16;" vertex="1" parent="1">
          <mxGeometry x="283" y="944" width="86" height="31" as="geometry" />
        </mxCell>
        <mxCell id="YnSRLy2Meo23QNcn_RVZ-1" value="추락 사고" style="shape=callout;whiteSpace=wrap;html=1;perimeter=calloutPerimeter;fontSize=16;size=31;position=0;position2=0.05;" vertex="1" parent="1">
          <mxGeometry x="555" y="716" width="120" height="64" as="geometry" />
        </mxCell>
        <mxCell id="YnSRLy2Meo23QNcn_RVZ-4" value="&lt;font color=&quot;#666666&quot;&gt;기관사&lt;/font&gt;" style="shape=umlActor;verticalLabelPosition=bottom;verticalAlign=top;html=1;outlineConnect=0;fontSize=16;fillColor=#666666;strokeColor=#666666;" vertex="1" parent="1">
          <mxGeometry x="-12" y="797.25" width="30" height="60" as="geometry" />
        </mxCell>
        <mxCell id="YnSRLy2Meo23QNcn_RVZ-7" value="추락사고" style="whiteSpace=wrap;html=1;fontSize=16;fillColor=#97D077;" vertex="1" parent="1">
          <mxGeometry x="29" y="822" width="73" height="44" as="geometry" />
        </mxCell>
        <mxCell id="YnSRLy2Meo23QNcn_RVZ-8" value="" style="curved=1;endArrow=none;html=1;rounded=0;fontSize=12;startSize=8;endSize=8;exitX=0.5;exitY=0;exitDx=0;exitDy=0;endFill=0;startArrow=block;startFill=1;strokeColor=#666666;" edge="1" parent="1" source="YnSRLy2Meo23QNcn_RVZ-7">
          <mxGeometry width="50" height="50" relative="1" as="geometry">
            <mxPoint x="61" y="691" as="sourcePoint" />
            <mxPoint x="553" y="779" as="targetPoint" />
            <Array as="points">
              <mxPoint x="68" y="757" />
              <mxPoint x="66" y="677" />
              <mxPoint x="581" y="663" />
            </Array>
          </mxGeometry>
        </mxCell>
      </root>
    </mxGraphModel>
  </diagram>
  <diagram id="BDoCA5U98Db7nCAfCn77" name="페이지-2">
    <mxGraphModel dx="1826" dy="1243" grid="0" gridSize="10" guides="1" tooltips="1" connect="1" arrows="1" fold="1" page="0" pageScale="1" pageWidth="827" pageHeight="1169" math="0" shadow="0">
      <root>
        <mxCell id="0" />
        <mxCell id="1" parent="0" />
        <mxCell id="ZUHDF6rwAJzS2V2cWt4W-6" value="" style="edgeStyle=none;curved=1;rounded=0;orthogonalLoop=1;jettySize=auto;html=1;fontSize=12;startSize=8;endSize=8;" edge="1" parent="1" source="ZUHDF6rwAJzS2V2cWt4W-1" target="ZUHDF6rwAJzS2V2cWt4W-5">
          <mxGeometry relative="1" as="geometry" />
        </mxCell>
        <mxCell id="ZUHDF6rwAJzS2V2cWt4W-1" value="스크린 도어가 고장났는가?" style="rhombus;whiteSpace=wrap;html=1;fontSize=16;direction=west;rounded=0;" vertex="1" parent="1">
          <mxGeometry x="-187" y="33" width="262" height="80" as="geometry" />
        </mxCell>
        <mxCell id="ZUHDF6rwAJzS2V2cWt4W-5" value="기관사 버튼 누름" style="whiteSpace=wrap;html=1;fontSize=16;rounded=0;" vertex="1" parent="1">
          <mxGeometry x="-124" y="145" width="136" height="60" as="geometry" />
        </mxCell>
        <mxCell id="ZUHDF6rwAJzS2V2cWt4W-7" value="" style="whiteSpace=wrap;html=1;fontSize=16;rounded=0;" vertex="1" parent="1">
          <mxGeometry x="266" y="43" width="120" height="60" as="geometry" />
        </mxCell>
        <mxCell id="ZUHDF6rwAJzS2V2cWt4W-14" value="" style="endArrow=classic;html=1;rounded=0;fontSize=12;startSize=8;endSize=8;curved=1;exitX=0;exitY=0.5;exitDx=0;exitDy=0;entryX=0.5;entryY=1;entryDx=0;entryDy=0;" edge="1" parent="1" source="ZUHDF6rwAJzS2V2cWt4W-1" target="ZUHDF6rwAJzS2V2cWt4W-1">
          <mxGeometry width="50" height="50" relative="1" as="geometry">
            <mxPoint x="97" y="77" as="sourcePoint" />
            <mxPoint x="75" y="-18" as="targetPoint" />
            <Array as="points">
              <mxPoint x="75" y="-57" />
            </Array>
          </mxGeometry>
        </mxCell>
        <mxCell id="ZUHDF6rwAJzS2V2cWt4W-16" value="" style="edgeStyle=elbowEdgeStyle;elbow=vertical;endArrow=classic;html=1;curved=0;rounded=0;endSize=8;startSize=8;fontSize=12;" edge="1" parent="1">
          <mxGeometry width="50" height="50" relative="1" as="geometry">
            <mxPoint x="175" y="226" as="sourcePoint" />
            <mxPoint x="225" y="176" as="targetPoint" />
          </mxGeometry>
        </mxCell>
      </root>
    </mxGraphModel>
  </diagram>
</mxfile>
